<svg width="49" height="13" viewBox="0 0 49 13" fill="none" xmlns="http://www.w3.org/2000/svg" title="Algolia">
    <path fill-rule="evenodd" clip-rule="evenodd" d="M1.58318 0.500003H10.4408C11.3149 0.500634 12.0234 1.20769 12.024 2.08002V10.9211C12.0231 11.7931 11.3146 12.4997 10.4408 12.5H1.58318C0.70939 12.4997 0.000884211 11.7931 0 10.9211V2.0763C0.000170665 1.86895 0.0412631 1.66366 0.120922 1.47222C0.200581 1.28078 0.317239 1.10695 0.464211 0.960677C0.761434 0.664892 1.16392 0.499199 1.58324 0.500003H1.58318ZM23.9684 10.0176C21.6273 10.0282 21.6273 8.13169 21.6273 7.83017L21.6235 0.725856L23.0514 0.500003V7.56068C23.0514 7.73215 23.0514 8.81682 23.9684 8.82005V10.0176ZM18.179 8.85623C18.6173 8.85623 18.9423 8.83116 19.1692 8.78752V7.33906C18.8947 7.26871 18.6124 7.23308 18.329 7.23301C18.1687 7.23266 18.0086 7.24496 17.8503 7.26977C17.6996 7.28924 17.5529 7.33238 17.4157 7.3976C17.2876 7.45943 17.1814 7.54678 17.1051 7.6592C17.025 7.77213 16.9882 7.83769 16.9882 8.00866C16.9882 8.3432 17.1051 8.53659 17.3169 8.66392C17.5288 8.79125 17.8177 8.85674 18.1791 8.85674V8.85623H18.179ZM18.0546 3.68885C18.526 3.68885 18.9242 3.74695 19.2455 3.8636C19.5669 3.97969 19.8263 4.14327 20.0163 4.35099C20.2101 4.56194 20.3414 4.84217 20.422 5.1411C20.5058 5.43939 20.5458 5.76699 20.5458 6.12655V9.78845C20.2151 9.85388 19.8826 9.90971 19.5487 9.95575C19.1036 10.0212 18.6028 10.0543 18.0472 10.0543C17.6788 10.0543 17.3389 10.0175 17.0356 9.9488C16.7538 9.88991 16.4867 9.77468 16.2505 9.61002C16.0347 9.45284 15.8605 9.2455 15.7429 9.00592C15.6222 8.75821 15.5597 8.40927 15.5597 8.04541C15.5597 7.69596 15.6292 7.47383 15.7647 7.23301C15.9015 6.99499 16.0931 6.79301 16.3236 6.64381C16.5611 6.49097 16.8307 6.38171 17.1414 6.31621C17.4609 6.24978 17.7865 6.21676 18.1128 6.21769C18.4675 6.21861 18.8208 6.26152 19.1655 6.34552V6.11221C19.1655 5.94863 19.1468 5.79257 19.1067 5.64661C19.0681 5.50338 18.9981 5.37054 18.9018 5.25769C18.7968 5.13942 18.6639 5.04916 18.5153 4.99508C18.3204 4.9214 18.1136 4.88435 17.9052 4.88581C17.5764 4.88581 17.2769 4.92586 17.0031 4.97322C16.7747 5.00886 16.5497 5.06358 16.3305 5.1368L16.1592 3.96901C16.338 3.90674 16.6043 3.84497 16.9481 3.78314C17.3131 3.71666 17.6836 3.68491 18.0546 3.68834V3.68885ZM46.2608 8.81682C46.6995 8.81682 47.0241 8.79125 47.2504 8.74754V7.29857C46.9759 7.22829 46.6936 7.19266 46.4103 7.19253C46.2533 7.19253 46.0926 7.20371 45.932 7.22929C45.7813 7.24876 45.6346 7.29191 45.4974 7.35712C45.3726 7.41532 45.2654 7.50559 45.1868 7.61872C45.1067 7.73165 45.0704 7.7972 45.0704 7.96817C45.0704 8.30272 45.1868 8.49611 45.3987 8.62344C45.6143 8.75392 45.8994 8.81626 46.2608 8.81626V8.81682H46.2608ZM46.1401 3.65259C46.6115 3.65259 47.0097 3.71019 47.331 3.82685C47.6523 3.9435 47.9118 4.10701 48.1018 4.31423C48.2913 4.52202 48.4269 4.80598 48.5069 5.10434C48.5936 5.42588 48.6355 5.75786 48.6313 6.09087V9.75226C48.4124 9.79912 48.0793 9.85343 47.6342 9.9195C47.189 9.98506 46.6883 10.0175 46.1327 10.0175C45.7643 10.0175 45.4244 9.98133 45.1211 9.91205C44.8393 9.8533 44.5722 9.73825 44.336 9.57377C44.1202 9.4166 43.946 9.20926 43.8283 8.96967C43.7077 8.72196 43.6453 8.37301 43.6453 8.00866C43.6453 7.6592 43.7146 7.43708 43.8502 7.19682C43.987 6.95863 44.1786 6.75645 44.4091 6.60706C44.6466 6.45472 44.9162 6.34552 45.2268 6.28002C45.7096 6.18018 46.2051 6.1568 46.6952 6.21074C46.8709 6.22887 47.0535 6.2619 47.2504 6.30927V6.07647C47.252 5.9192 47.2324 5.76242 47.1923 5.61036C47.1538 5.4669 47.0838 5.33385 46.9873 5.22093C46.8822 5.10284 46.7493 5.01276 46.6007 4.95882C46.4058 4.88518 46.199 4.84816 45.9906 4.84962C45.6619 4.84962 45.3624 4.8896 45.0886 4.93704C44.8602 4.9727 44.6352 5.02742 44.416 5.10061L44.2447 3.93232C44.4234 3.87049 44.6898 3.80872 45.0336 3.74695C45.3989 3.68261 45.7692 3.65103 46.1401 3.65259ZM41.8517 2.97554C41.3732 2.97617 40.9845 2.59009 40.9827 2.11255C40.9827 1.63571 41.3697 1.24956 41.8518 1.24956C42.3343 1.24956 42.7218 1.63577 42.7218 2.11255C42.7218 2.58933 42.3305 2.97554 41.8517 2.97554ZM42.5713 10.0181H41.1359V3.8732L42.5718 3.64786V10.017L42.5713 10.0181ZM40.0551 10.0181C37.7138 10.0287 37.7138 8.13219 37.7138 7.83017L37.7096 0.725856L39.138 0.500003V7.56068C39.138 7.73215 39.138 8.81682 40.0551 8.82005V10.0181ZM35.4122 6.87346C35.4122 6.25767 35.2772 5.74463 35.014 5.38823C34.7508 5.0276 34.3825 4.85013 33.9106 4.85013C33.4398 4.85013 33.0705 5.0276 32.8084 5.38823C32.5453 5.74836 32.4171 6.2576 32.4171 6.87346C32.4171 7.49562 32.5485 7.91386 32.8121 8.27449C33.0747 8.63828 33.4436 8.81682 33.9149 8.81682C34.3857 8.81682 34.7551 8.63461 35.0183 8.27398C35.2809 7.91013 35.4122 7.49619 35.4122 6.87289V6.87346ZM36.8732 6.86967C36.8732 7.35024 36.8037 7.71352 36.6612 8.11097C36.5312 8.48665 36.3264 8.83205 36.0591 9.1263C35.7981 9.40848 35.4791 9.63077 35.124 9.7779C34.7583 9.93023 34.1958 10.0176 33.915 10.0176C33.6332 10.0144 33.0748 9.93396 32.7129 9.7779C32.3602 9.62868 32.0429 9.40665 31.7819 9.12636C31.522 8.84562 31.3213 8.50735 31.1751 8.11104C31.0248 7.71471 30.9505 7.29361 30.9562 6.86979C30.9562 6.38929 31.0219 5.92685 31.1682 5.53369C31.303 5.15991 31.5118 4.81713 31.782 4.52581C32.0447 4.24695 32.3629 4.02627 32.7161 3.878C33.0786 3.72516 33.4767 3.65272 33.9075 3.65272C34.3388 3.65272 34.7365 3.72832 35.1016 3.878C35.4574 4.02233 35.777 4.24355 36.0373 4.52581C36.3037 4.8186 36.5095 5.16112 36.6431 5.53369C36.7964 5.92685 36.8732 6.38929 36.8732 6.86979L36.8732 6.86967ZM26.1238 6.86967C26.1238 7.46638 26.2552 8.12853 26.5178 8.40504C26.7809 8.68205 27.1209 8.82055 27.5373 8.82055C27.7636 8.82055 27.9793 8.78752 28.18 8.72569C28.3812 8.66392 28.5413 8.59091 28.6695 8.50356V4.97057C28.3592 4.90382 28.0438 4.86355 27.7268 4.85019C27.2085 4.83529 26.814 5.04725 26.5364 5.38501C26.2626 5.72386 26.1238 6.31722 26.1238 6.87023V6.86973V6.86967ZM30.0941 9.67925C30.0941 10.6509 29.8454 11.3605 29.3447 11.8123C28.8451 12.263 28.0812 12.4888 27.0515 12.4888C26.6752 12.4888 25.8932 12.4158 25.2687 12.2779L25.4988 11.1496C26.0219 11.2588 26.7116 11.2881 27.0735 11.2881C27.6467 11.2881 28.0556 11.1714 28.3006 10.9386C28.5457 10.7058 28.6657 10.3601 28.6657 9.90093V9.66807C28.4845 9.75141 28.2978 9.82208 28.1068 9.87958C27.8773 9.9488 27.6104 9.98506 27.3104 9.98506C26.9159 9.98506 26.5578 9.92322 26.2333 9.79912C25.917 9.68223 25.6311 9.49561 25.3968 9.25312C25.1668 9.01337 24.9837 8.71129 24.8561 8.35066C24.728 7.99002 24.6623 7.34645 24.6623 6.87339C24.6623 6.42914 24.7317 5.87196 24.8673 5.50066C25.0061 5.12986 25.203 4.80914 25.4699 4.54381C25.7331 4.27855 26.0545 4.07455 26.4308 3.92487C26.8436 3.76307 27.2833 3.68047 27.7268 3.68139C28.1912 3.68139 28.6182 3.7395 29.0346 3.80922C29.4509 3.87794 29.8053 3.95045 30.0941 4.03028V9.67975V9.67925ZM7.2648 3.17903V2.76781C7.26448 2.48026 7.03086 2.24733 6.74274 2.24733H5.52568C5.23762 2.24733 5.004 2.48026 5.00368 2.76775V3.19028C5.00368 3.23714 5.04745 3.27011 5.09495 3.2595C5.43919 3.16024 5.79571 3.11002 6.15398 3.11032C6.49971 3.11039 6.84387 3.1568 7.17726 3.24832C7.18773 3.25093 7.19865 3.2511 7.20919 3.24883C7.21973 3.24655 7.22961 3.24189 7.23807 3.2352C7.24652 3.22851 7.25333 3.21996 7.25796 3.21022C7.2626 3.20049 7.26494 3.18982 7.2648 3.17903ZM3.92968 3.71714L3.72152 3.50986C3.62364 3.41214 3.49098 3.35726 3.35267 3.35726C3.21437 3.35726 3.08171 3.41214 2.98383 3.50986L2.73562 3.75756C2.68711 3.8057 2.64861 3.86296 2.62233 3.92605C2.59606 3.98914 2.58253 4.0568 2.58253 4.12514C2.58253 4.19348 2.59606 4.26115 2.62233 4.32423C2.64861 4.38732 2.68711 4.44458 2.73562 4.49272L2.94006 4.69672C2.97316 4.72925 3.02015 4.72179 3.04952 4.68933C3.17015 4.52575 3.30145 4.36912 3.44773 4.22373C3.59766 4.07455 3.75088 3.9435 3.91901 3.82362C3.95533 3.80127 3.95905 3.75068 3.92975 3.71708L3.92968 3.71714ZM6.15025 5.02388V6.80367C6.15025 6.85482 6.20577 6.89158 6.2527 6.866L7.83808 6.04722C7.87434 6.0291 7.88558 5.98489 7.86739 5.9492C7.70079 5.65714 7.4623 5.4125 7.17457 5.23852C6.88684 5.06453 6.55942 4.96697 6.22339 4.9551C6.18707 4.9551 6.15076 4.9839 6.15076 5.02438L6.15025 5.02381V5.02388ZM6.15076 9.31167C4.82867 9.31198 3.75613 8.24354 3.75411 6.92405C3.75587 5.60449 4.82855 4.53579 6.15076 4.53642C7.47278 4.53611 8.54514 5.60468 8.54697 6.92405C8.54677 7.23803 8.48461 7.54888 8.36405 7.8388C8.24349 8.12871 8.0669 8.39198 7.8444 8.61352C7.39449 9.06151 6.78516 9.31261 6.15025 9.31167H6.15076ZM6.15032 3.53171C4.93655 3.53171 3.81505 4.17794 3.20817 5.22693C2.91001 5.74216 2.75302 6.32691 2.75302 6.92218C2.75302 7.51746 2.91001 8.10221 3.20817 8.61744C3.81505 9.66649 4.93655 10.3127 6.15032 10.3127C7.05174 10.3131 7.91653 9.95591 8.55493 9.3195C8.87064 9.00477 9.12117 8.63085 9.29219 8.21917C9.46321 7.80748 9.55134 7.36611 9.55156 6.92032C9.55163 6.4747 9.46367 6.03345 9.29273 5.62191C9.1218 5.21037 8.87126 4.83666 8.5555 4.52221C8.23932 4.20736 7.86421 3.95787 7.4516 3.78801C7.039 3.61814 6.59696 3.53122 6.15076 3.53221L6.15025 3.53171H6.15032Z" fill="#B7B5BD"/>
</svg>