<?xml version="1.0" encoding="UTF-8" standalone="no"?>
<svg
   xmlns:dc="http://purl.org/dc/elements/1.1/"
   xmlns:cc="http://creativecommons.org/ns#"
   xmlns:rdf="http://www.w3.org/1999/02/22-rdf-syntax-ns#"
   xmlns:svg="http://www.w3.org/2000/svg"
   xmlns="http://www.w3.org/2000/svg"
   viewBox="0 0 793.70667 793.70667"
   height="793.70667"
   width="793.70667"
   xml:space="preserve"
   id="svg2"
   version="1.1"><metadata
     id="metadata8"><rdf:RDF><cc:Work
         rdf:about=""><dc:format>image/svg+xml</dc:format><dc:type
           rdf:resource="http://purl.org/dc/dcmitype/StillImage" /></cc:Work></rdf:RDF></metadata><defs
     id="defs6" /><g
     transform="matrix(1.3333333,0,0,-1.3333333,0,793.70667)"
     id="g10"><g
       transform="scale(0.1)"
       id="g12"><path
         id="path14"
         style="fill:#f07538;fill-opacity:1;fill-rule:nonzero;stroke:none"
         d="M 671.617,2424.12 H 1776.18 V 3528.65 H 671.617 Z m 228.715,912.49 249.918,14.51 v -281.33 c 19.22,40.35 91.3,69.18 166.26,69.18 99.94,0 171.06,-37.48 207.58,-114.33 18.26,-39.4 27.87,-89.36 27.87,-148.93 0,-58.61 -7.69,-107.61 -24.99,-147.96 -34.6,-86.48 -104.75,-132.6 -213.35,-132.6 -62.46,0 -133.58,18.26 -165.3,53.81 l -23.05,-49.97 H 900.332 Z M 1216.3,2977.1 c -45.76,0 -74.05,-18.26 -89.86,-45.17 -10.82,-18.26 -16.64,-47.09 -16.64,-72.08 0,-27.86 6.65,-57.66 17.47,-75.91 14.14,-24.03 42.44,-42.29 88.2,-42.29 43.27,0 71.56,16.34 86.54,43.25 10.82,19.22 16.64,47.09 16.64,74.95 0,25.95 -5.82,54.78 -15.81,72.08 -14.98,25.95 -42.44,45.17 -86.54,45.17" /><path
         id="path16"
         style="fill:#2d3048;fill-opacity:1;fill-rule:nonzero;stroke:none"
         d="m 5278.07,2792.45 -78.11,126.57 c 100.91,68.41 72.41,257.11 -84.37,257.68 -58.15,0 -117.44,0 -175.02,0 0,-133.4 0,-266.24 0,-399.07 33.06,0 67.84,0 102.04,0 v 117.44 h 53.02 l 68.42,-117.44 h 114.02 z m -162.48,193.27 h -72.98 c 0,31.92 0,67.27 0,99.77 23.95,0 49.03,0.57 72.98,0 58.15,-0.57 55.3,-99.77 0,-99.77 z m -230.66,-9.34 c 0,114.41 -92.75,207.15 -207.15,207.15 -114.41,0 -207.15,-92.74 -207.15,-207.15 0,-114.4 92.74,-207.15 207.15,-207.15 114.4,0 207.15,92.75 207.15,207.15 z m -98.98,0 c 0,-59.74 -48.43,-108.17 -108.17,-108.17 -59.74,0 -108.17,48.43 -108.17,108.17 0,59.74 48.43,108.17 108.17,108.17 59.74,0 108.17,-48.43 108.17,-108.17 z m -452.25,109.11 h 97.48 c 0,30.78 0,61 0,91.21 h -296.45 c 0,-30.21 0,-60.43 0,-91.21 h 98.06 v -307.86 c 33.63,0 67.27,0 100.91,0 z m -189.94,-293.04 -180.15,389.38 h -43.9 l -179.58,-389.38 v -14.82 h 99.77 l 23.37,50.17 h 157.35 l 23.37,-50.17 h 99.77 z m -156.21,122.58 h -91.21 l 45.03,104.89 z m -281.83,-26.8 c 13.69,38.77 13.69,76.96 11.4,116.87 h -188.7 v -88.36 h 84.95 c -18.25,-38.2 -44.47,-49.03 -85.52,-49.03 -60.43,0 -99.2,43.32 -99.2,109.46 0,61 34.78,111.17 99.2,111.17 37.49,0 62.64,-11.97 79.31,-40.88 h 102.56 c -21.95,94.04 -103.45,133.82 -181.87,134.37 -101.48,0 -204.09,-68.41 -204.66,-204.66 0.57,-136.26 103.18,-204.1 204.66,-204.1 73.54,0 149.37,31.93 177.87,115.16 z m -545.71,-110.4 h 100.91 v 398.91 h -100.91 z m -231.58,-4.76 169.32,388.24 v 15.39 h -98.06 l -91.22,-225.76 h -2.85 l -93.5,225.76 h -98.05 v -15.39 l 171.03,-388.24 z m -151.75,19.38 -180.15,389.38 h -43.9 l -179.59,-389.38 v -14.82 h 99.77 l 23.38,50.17 h 157.35 l 23.37,-50.17 h 99.77 z m -156.21,122.57 h -91.22 l 45.04,104.9 z m -330.54,-137.96 h 36.48 v 399.64 c -34.77,0 -69.55,0 -104.33,0 v -195.54 l -201.81,197.25 h -37.06 v -400.78 c 34.78,0 70.12,0 105.47,0 v 196.12 l 201.25,-196.69" /></g></g></svg>