<svg id="svg2" xmlns="http://www.w3.org/2000/svg" viewBox="0 0 614.19 147.27"><defs><style>.cls-1{fill:#f07538;}.cls-2{fill:#2d3048;}</style></defs><title>better-navigator_1-transparent</title><g id="g10"><g id="g12"><path id="path14" class="cls-1" d="M119.24,367.91H266.51V220.64H119.24Zm30.49-121.66,33.33-1.94v37.51c2.56-5.38,12.17-9.22,22.16-9.22,13.33,0,22.81,5,27.68,15.24,2.44,5.26,3.72,11.92,3.72,19.86s-1,14.35-3.34,19.73c-4.61,11.53-14,17.68-28.44,17.68-8.33,0-17.81-2.43-22-7.17l-3.08,6.66h-30Zm42.13,47.93c-6.1,0-9.87,2.44-12,6a20.43,20.43,0,0,0-2.22,9.61A21.52,21.52,0,0,0,180,319.94c1.89,3.2,5.66,5.64,11.76,5.64,5.77,0,9.54-2.18,11.54-5.77a21.33,21.33,0,0,0,2.22-10,21.05,21.05,0,0,0-2.11-9.61c-2-3.46-5.66-6-11.54-6" transform="translate(-119.24 -220.64)"/><path id="path16" class="cls-2" d="M733.43,318.8,723,301.93c13.45-9.12,9.65-34.28-11.25-34.36H688.43v53.21H702V305.12h7.07l9.12,15.66h15.2ZM711.77,293H702v-13.3c3.19,0,6.53-.07,9.73,0C719.52,279.81,719.14,293,711.77,293ZM681,294.28a27.62,27.62,0,1,0-27.62,27.62A27.61,27.61,0,0,0,681,294.28Zm-13.19,0a14.43,14.43,0,1,1-14.43-14.42A14.43,14.43,0,0,1,667.82,294.28Zm-60.3-14.55h13V267.57H581v12.16h13.07v41h13.46ZM582.19,318.8l-24-51.91h-5.85l-24,51.91v2h13.31l3.11-6.69h21l3.12,6.69h13.3Zm-20.83-16.34H549.2l6-14ZM523.78,306c1.83-5.17,1.83-10.26,1.52-15.58H500.14v11.78h11.33c-2.43,5.09-5.93,6.54-11.4,6.54-8.06,0-13.23-5.78-13.23-14.6,0-8.13,4.64-14.82,13.23-14.82,5,0,8.35,1.6,10.57,5.45h13.68c-2.93-12.54-13.8-17.84-24.25-17.91-13.53,0-27.21,9.12-27.29,27.28.08,18.17,13.76,27.22,27.29,27.22C509.87,321.39,520,317.13,523.78,306ZM451,320.75h13.46V267.56H451Zm-30.87.64,22.57-51.77v-2.05H429.65l-12.17,30.1h-.38l-12.46-30.1H391.56v2.05l22.81,51.77Zm-20.24-2.59-24-51.91H370l-24,51.91v2H359.4l3.11-6.69h21l3.12,6.69h13.3Zm-20.83-16.34H366.92l6-14ZM335,320.86h4.87V267.57H326v26.07l-26.91-26.3h-4.94v53.44h14.06V294.63L335,320.86" transform="translate(-119.24 -220.64)"/></g></g></svg>