<svg xmlns="http://www.w3.org/2000/svg" width="108.364" height="31.026" viewBox="0 0 108.364 31.026">
  <defs>
    <style>
      .cls-1 {
        fill: #707070;
      }
    </style>
  </defs>
  <g id="Group_397" data-name="Group 397" transform="translate(199 19.614)">
    <path id="Path_125" data-name="Path 125" class="cls-1" d="M-92.236,116.277v-.735h1.421v-.949h-1.421V114h1.547v-.955H-93.3v4.18h2.663v-.949Zm-5.235-1.959c.036-.5,1.158-.543,1.158.012H-95.3c.024-1.8-3.225-1.8-3.189,0,.012.908.609,1.218,1.517,1.284.418.024.764.09.764.382,0,.49-1.308.484-1.308-.048h-1.033c-.024,1.839,3.38,1.809,3.38.054,0-1.045-.812-1.17-1.642-1.26-.376-.042-.687-.107-.663-.424Zm-2.668.824a2.144,2.144,0,1,0-4.287,0,2.144,2.144,0,1,0,4.287,0Zm-1.093,0a1.051,1.051,0,1,1-2.1,0,1.051,1.051,0,1,1,2.1,0Zm-6.3-2.1h-1.839v4.18h1.069v-1.069h.77a1.557,1.557,0,0,0,0-3.111Zm-.006,2.15h-.764V114c.245,0,.513-.006.764,0,.621.006.585,1.194,0,1.194Zm-4.757,2.03h1.194v-.155l-.818-1.326a1.487,1.487,0,0,0-.884-2.7h-1.833v4.18h1.069V116h.555l.717,1.23Zm-.508-2.18h-.764V114c.251,0,.514-.006.764,0,.609.006.579,1.045,0,1.045Zm-3.911.788v-2.789h-1.021v2.771c0,.34-.323.507-.633.507s-.639-.167-.639-.507v-2.771h-1.021v2.789a1.527,1.527,0,0,0,1.66,1.451,1.518,1.518,0,0,0,1.654-1.451Zm-6.533-2.789h-1.839v4.18h1.069v-1.069h.77a1.557,1.557,0,0,0,0-3.111Zm-.006,2.15h-.764V114c.245,0,.514-.006.764,0,.621.006.585,1.194,0,1.194Zm-12.656.489h8.615v-1.058h-8.615v1.058Zm-3.272,1.542h1.093v-4.18h-1.093v1.517h-1.29v-1.517h-1.093v4.18h1.093v-1.678h1.29v1.678ZM-144.255,114h1.021v-.955h-3.105V114h1.027v3.225h1.057V114Zm-4.8,3.219H-148v-4.178h-1.058v4.178Zm-2.987.047,1.451-4.061v-.161h-1.063l-.532,1.576-.185.711h-.018l-.71-2.221h-.454l-.7,2.221h-.018l-.185-.711-.538-1.576h-1.081v.161l1.469,4.061h.591l.669-2.012h.018l.669,2.012Zm-14.6-1.584h8.615v-1.058h-8.615v1.058Zm-4.448-1.366c.036-.5,1.159-.543,1.159.012h1.015c.024-1.8-3.224-1.8-3.189,0,.012.908.609,1.218,1.517,1.284.418.024.764.09.764.382,0,.49-1.308.484-1.308-.048h-1.033c-.024,1.839,3.38,1.809,3.38.054,0-1.045-.812-1.17-1.642-1.26-.376-.042-.687-.107-.663-.424Zm-4.7-1.272h-1.576v4.18h1.576a2.091,2.091,0,0,0,0-4.18Zm0,3.207h-.507v-2.233h.507c1.332,0,1.332,2.233,0,2.233Zm-4.063.979h.382v-4.186h-1.093v2.048l-2.114-2.066h-.388v4.2h1.1v-2.054l2.108,2.06Zm-5.874-.006h1.045v-.155l-1.887-4.078h-.46l-1.881,4.078v.155h1.045l.245-.526h1.648l.245.526Zm-.591-1.439h-.956l.472-1.1.484,1.1Zm-5.186,1.439h1.194v-.155l-.818-1.326a1.487,1.487,0,0,0-.884-2.7h-1.833v4.18h1.069V116h.555l.717,1.23Zm-.508-2.18h-.764V114c.251,0,.514-.006.764,0,.609.006.579,1.045,0,1.045Zm-4.226.006a1,1,0,0,0,.328-.723,1.282,1.282,0,0,0-1.3-1.284H-199v4.18h1.959a1.235,1.235,0,0,0,1.3-1.32.905.905,0,0,0-.5-.854Zm-1.051-.376h-.675V114h.669a.338.338,0,0,1,.006.675Zm.179,1.6h-.854v-.711h.848c.43,0,.436.711.006.711Z" transform="translate(0 -105.911)"/>
    <path id="Path_126" data-name="Path 126" class="cls-1" d="M-90.636,3.612V-4.635h-8.247V3.612ZM-98.359-6.857a7.1,7.1,0,0,1,3.166.637v-6.752a13.969,13.969,0,0,0-1.712-.121c-1.662,0-3.977,1.157-4.214,2.819v-2.433h-7.688V3.612h7.955V-4.045c0-1.692.8-2.812,2.493-2.812Zm-23.7,4.06,11.981-.344a16.371,16.371,0,0,0-.383-3.87c-.861-3.443-3.771-6.082-9.26-6.082-4.332,0-6.708,1.245-8.37,3.114a7.976,7.976,0,0,0-1.721,5.342A8.149,8.149,0,0,0-128.036,1c1.543,1.839,4.008,2.877,8.222,2.877,4.9,0,7.687-1.275,9.052-3.826A5.081,5.081,0,0,0-110.2-1.8h-7.42c-.031.079-.063.158-.1.228a2.113,2.113,0,0,1-2.089,1.012,2.286,2.286,0,0,1-2.159-1.047,3.573,3.573,0,0,1-.347-1.179.067.067,0,0,1,0-.007Zm4.659-3.44h-4.91a3.581,3.581,0,0,1,.348-1.187,2.286,2.286,0,0,1,2.159-1.047,2.113,2.113,0,0,1,2.089,1.012,3.02,3.02,0,0,1,.314,1.222ZM-133.759-6.8h2.92v-5.729h-3.069v-7.083l-7.658.448c0,1.395-.03,6.249-.148,6.635h-5.668v-7.083l-7.658.448c0,1.395-.03,6.249-.148,6.635h-2.1V-6.8h2.159v5.22c0,4.274,2.793,5.49,5.493,5.49a22.042,22.042,0,0,0,5.162-.564V-1.646a5.8,5.8,0,0,1-1.484.178c-.95,0-1.276-.356-1.276-.979V-6.8h5.58v5.22c0,4.274,2.793,5.49,5.493,5.49A22.047,22.047,0,0,0-131,3.345V-1.646a5.8,5.8,0,0,1-1.484.178c-.95,0-1.276-.356-1.276-.979V-6.8ZM-170.1-2.8l11.981-.344a16.363,16.363,0,0,0-.384-3.87c-.861-3.443-3.771-6.082-9.26-6.082-4.332,0-6.708,1.245-8.37,3.114a7.977,7.977,0,0,0-1.721,5.342A8.15,8.15,0,0,0-176.076,1c1.543,1.839,4.008,2.877,8.222,2.877,4.9,0,7.688-1.275,9.052-3.826A5.085,5.085,0,0,0-158.24-1.8h-7.42c-.031.079-.063.158-.1.228a2.113,2.113,0,0,1-2.089,1.012,2.286,2.286,0,0,1-2.159-1.047,3.572,3.572,0,0,1-.347-1.179s0,0,0-.007Zm4.659-3.44h-4.911a3.581,3.581,0,0,1,.348-1.187,2.286,2.286,0,0,1,2.159-1.047,2.113,2.113,0,0,1,2.089,1.012,3.02,3.02,0,0,1,.314,1.222ZM-179.649-.364a11.586,11.586,0,0,0,.772-4.569,10.966,10.966,0,0,0-.861-4.6c-1.128-2.373-3.324-3.531-6.41-3.531-2.315,0-4.541.89-5.134,2.136v-8.688l-7.718.448V3.612h6.946l.712-1.543c.979,1.1,3.175,1.662,5.1,1.662,3.353,0,5.52-1.424,6.588-4.094Zm-6.433-4.08a4.936,4.936,0,0,1-.514,2.315,2.813,2.813,0,0,1-2.672,1.336A2.945,2.945,0,0,1-191.992-2.1a4.971,4.971,0,0,1-.54-2.344,4.734,4.734,0,0,1,.514-2.226,2.966,2.966,0,0,1,2.775-1.395,2.874,2.874,0,0,1,2.672,1.395,4.878,4.878,0,0,1,.488,2.226Z" transform="translate(0)"/>
  </g>
</svg>
