<svg xmlns="http://www.w3.org/2000/svg" xmlns:xlink="http://www.w3.org/1999/xlink" width="145.077" height="34.786" viewBox="0 0 145.077 34.786">
  <defs>
    <clipPath id="clip-path">
      <rect id="Rectangle_394" data-name="Rectangle 394" width="145.077" height="34.786" fill="#707070"/>
    </clipPath>
  </defs>
  <g id="Group_114" data-name="Group 114" clip-path="url(#clip-path)">
    <path id="Path_54" data-name="Path 54" d="M0,34.786H34.787V0H0ZM7.2,6.048l7.871-.457v8.86c.605-1.271,2.875-2.179,5.236-2.179,3.148,0,5.387,1.18,6.538,3.6a11.183,11.183,0,0,1,.878,4.69,11.815,11.815,0,0,1-.787,4.66c-1.09,2.724-3.3,4.176-6.719,4.176-1.967,0-4.207-.575-5.206-1.695l-.726,1.574H7.2Zm9.951,11.323a3.025,3.025,0,0,0-2.83,1.423,4.828,4.828,0,0,0-.524,2.27,5.067,5.067,0,0,0,.55,2.39,3,3,0,0,0,2.778,1.332,2.869,2.869,0,0,0,2.726-1.362,5.032,5.032,0,0,0,.524-2.361,4.972,4.972,0,0,0-.5-2.27,2.932,2.932,0,0,0-2.726-1.423" fill="#707070"/>
    <path id="Path_55" data-name="Path 55" d="M234.929,46.829l-2.46-3.986c3.178-2.155,2.281-8.1-2.657-8.115H224.3V47.3h3.214V43.6h1.67l2.155,3.7h3.591Zm-5.117-6.087h-2.3V37.6c.754,0,1.544-.018,2.3,0,1.831.018,1.742,3.142,0,3.142m-7.264.294a6.524,6.524,0,1,0-6.524,6.524,6.524,6.524,0,0,0,6.524-6.524m-3.117,0a3.407,3.407,0,1,1-3.407-3.406,3.407,3.407,0,0,1,3.407,3.406M205.186,37.6h3.07V34.727H198.92V37.6h3.088v9.7h3.178ZM199.2,46.829,193.53,34.566h-1.382l-5.656,12.263V47.3h3.142l.736-1.58h4.956l.736,1.58H199.2Zm-4.919-3.861h-2.873l1.418-3.3Zm-8.876.844a9.139,9.139,0,0,0,.359-3.681h-5.943v2.783H182.5a2.557,2.557,0,0,1-2.694,1.544c-1.9,0-3.124-1.364-3.124-3.447,0-1.921,1.1-3.5,3.124-3.5a2.577,2.577,0,0,1,2.5,1.287h3.23a5.574,5.574,0,0,0-5.728-4.232,6.22,6.22,0,0,0-6.446,6.446,6.2,6.2,0,0,0,6.446,6.428,5.55,5.55,0,0,0,5.6-3.627m-17.187,3.477H171.4V34.726h-3.178Zm-7.293.15,5.333-12.227v-.485h-3.088l-2.873,7.11h-.09l-2.945-7.11h-3.088v.485l5.386,12.227Zm-4.779-.61-5.674-12.263h-1.382l-5.656,12.263V47.3h3.142l.736-1.58h4.956l.736,1.58h3.142Zm-4.92-3.86h-2.873l1.419-3.3Zm-10.41,4.345h1.149V34.727h-3.286v6.158l-6.356-6.212h-1.167V47.3h3.322V41.119Z" transform="translate(-89.851 -23.643)" fill="#707070"/>
  </g>
</svg>
