<svg id="Group_361" data-name="Group 361" xmlns="http://www.w3.org/2000/svg" width="28.161" height="21.334" viewBox="0 0 28.161 21.334">
  <defs>
    <style>
      .cls-1 {
        fill: #707070;
      }
    </style>
  </defs>
  <g id="Group_357" data-name="Group 357" transform="translate(0 7.168)">
    <g id="Group_356" data-name="Group 356" transform="translate(0 0)">
      <path id="Path_118" data-name="Path 118" class="cls-1" d="M26.881,193.071l-1.28.683-10.918,5.823-.012.006-.039.019-.04.018-.032.013-.05.019-.025.009-.059.018-.018.005-.066.016-.014,0-.071.012-.011,0-.077.008h-.006l-.082,0h0l-.082,0h-.006l-.078-.008-.01,0-.072-.012-.013,0-.066-.016-.018-.005-.059-.018-.025-.009-.049-.019-.032-.013-.039-.018-.039-.019-.012-.006L2.56,193.753l-1.28-.683L0,192.388v12.886a1.28,1.28,0,0,0,1.28,1.28h25.6a1.28,1.28,0,0,0,1.28-1.28V192.388Z" transform="translate(0 -192.388)"/>
    </g>
  </g>
  <g id="Group_359" data-name="Group 359" transform="translate(0 0)">
    <g id="Group_358" data-name="Group 358">
      <path id="Path_119" data-name="Path 119" class="cls-1" d="M26.881,62.061H1.28A1.28,1.28,0,0,0,0,63.341v2.987l1.28.683,1.28.683,11.521,6.144L25.6,67.693l1.28-.683,1.28-.683V63.341A1.28,1.28,0,0,0,26.881,62.061Z" transform="translate(0 -62.061)"/>
    </g>
  </g>
</svg>
