<svg id="Group_354" data-name="Group 354" xmlns="http://www.w3.org/2000/svg" width="22.336" height="21.334" viewBox="0 0 22.336 21.334">
  <defs>
    <style>
      .cls-1 {
        fill: #707070;
      }
    </style>
  </defs>
  <g id="Group_352" data-name="Group 352" transform="translate(0.313 6.612)">
    <g id="Group_351" data-name="Group 351">
      <g id="Group_350" data-name="Group 350">
        <path id="Path_116" data-name="Path 116" class="cls-1" d="M520.492,740.358v7.9a.353.353,0,0,1-.353.353h-4.076a.353.353,0,0,1-.353-.353v-7.343c0-1.932-.69-3.252-2.422-3.252a2.616,2.616,0,0,0-2.454,1.749,3.277,3.277,0,0,0-.158,1.165v7.68a.353.353,0,0,1-.353.353h-4.074a.352.352,0,0,1-.353-.353c.009-1.955.05-11.442.008-13.673a.351.351,0,0,1,.353-.357h4.067a.353.353,0,0,1,.353.353v1.686c-.01.016-.024.032-.032.047h.032v-.047a4.748,4.748,0,0,1,4.31-2.376c3.146,0,5.505,2.055,5.505,6.472Zm-21.671,8.25H502.9a.353.353,0,0,0,.353-.353V734.576a.353.353,0,0,0-.353-.353h-4.075a.353.353,0,0,0-.353.353v13.678A.353.353,0,0,0,498.821,748.608Z" transform="translate(-498.468 -733.886)"/>
      </g>
    </g>
  </g>
  <g id="Group_353" data-name="Group 353">
    <path id="Path_117" data-name="Path 117" class="cls-1" d="M503.164,727.5a2.56,2.56,0,1,1-2.559-2.56A2.56,2.56,0,0,1,503.164,727.5Z" transform="translate(-498.045 -724.942)"/>
  </g>
</svg>
